Coordinates
version=1
nRows=29
nColumns=24
inDegrees=yes

Units are S.I. units (second, meters, Newtons, ...)
Angles are in degrees.

endheader
time	pelvis_tilt	pelvis_list	pelvis_rotation	pelvis_tx	pelvis_ty	pelvis_tz	hip_flexion_r	hip_adduction_r	hip_rotation_r	knee_angle_r	ankle_angle_r	subtalar_angle_r	mtp_angle_r	hip_flexion_l	hip_adduction_l	hip_rotation_l	knee_angle_l	ankle_angle_l	subtalar_angle_l	mtp_angle_l	lumbar_extension	lumbar_bending	lumbar_rotation
      0.56700000	     -0.74958887	      6.20868724	      6.59265939	     -0.76823316	      0.95323365	      0.31221733	     31.03539470	     -6.76085090	     -4.11703523	     -7.38460972	     10.49626911	     -5.88685158	      0.73273654	    -20.75670834	      7.91039306	      9.23600448	     -2.64380902	     14.86906585	     -7.72030628	     -0.06345491	      1.16608282	     -4.83955945	     -1.91999345
      0.57116667	     -0.81937170	      6.10581913	      6.69133971	     -0.76198122	      0.95206900	      0.31234609	     31.26478228	     -6.67881922	     -4.14730467	     -7.93381697	     10.44638127	     -6.27955270	      0.94779495	    -20.97978422	      7.71985946	      9.09064607	     -2.81611532	     14.95796350	     -7.39294344	     -0.19236549	      1.28633497	     -4.71283139	     -2.11971263
      0.57533333	     -0.88178654	      5.98901411	      6.75485168	     -0.75568141	      0.95092909	      0.31253249	     31.48166254	     -6.56030993	     -4.10261287	     -8.51615621	     10.27686190	     -6.71905077	      1.19616367	    -21.17804253	      7.52786344	      8.85469631	     -3.05048272	     15.05218731	     -7.03851842	     -0.31774595	      1.40500813	     -4.56606588	     -2.16221715
      0.57950000	     -0.91007301	      5.87282548	      6.80266028	     -0.74931646	      0.94984305	      0.31269870	     31.69410341	     -6.44789661	     -4.14899907	     -9.21562753	     10.08844014	     -6.93483035	      1.22587040	    -21.46457075	      7.33851542	      8.77419529	     -3.18672790	     15.01089096	     -6.98615530	     -0.33318406	      1.48231807	     -4.42006554	     -2.19689297
      0.58366667	     -1.02335761	      5.75178973	      6.86072922	     -0.74295422	      0.94868422	      0.31292033	     31.97047337	     -6.31819811	     -4.00994421	     -9.91385585	      9.87501085	     -7.55546992	      1.40702687	    -21.56293668	      7.15122262	      8.50110459	     -3.51262801	     15.13065529	     -6.52700700	     -0.38265103	      1.67271692	     -4.27071029	     -2.32132294
      0.58783333	     -1.09928745	      5.61079932	      6.89643720	     -0.73651056	      0.94760491	      0.31316116	     32.21206088	     -6.16110615	     -3.92437184	    -10.66004584	      9.55529202	     -8.06028389	      1.58375235	    -21.72189047	      6.94542538	      8.27139991	     -3.79347589	     15.16027106	     -6.20922130	     -0.41230038	      1.81718111	     -4.10004822	     -2.34842236
      0.59200000	     -1.16955793	      5.48196618	      6.91644037	     -0.73003293	      0.94655730	      0.31341297	     32.45929913	     -6.01026889	     -3.83522884	    -11.46788320	      9.23529146	     -8.54058682	      1.74273051	    -21.87175579	      6.76063941	      8.05369132	     -4.10688877	     15.16251644	     -5.96348310	     -0.41469457	      1.96729439	     -3.93115530	     -2.39648274
      0.59616667	     -1.25691663	      5.33931041	      6.93134593	     -0.72350440	      0.94552420	      0.31367944	     32.72146977	     -5.84184963	     -3.73749562	    -12.30270392	      8.84615902	     -9.04033596	      1.88072930	    -21.99521571	      6.56586365	      7.83909088	     -4.43603587	     15.14596866	     -5.70742876	     -0.39403127	      2.14113523	     -3.75179551	     -2.42747302
      0.60033333	     -1.26828262	      5.19654132	      6.92538556	     -0.71689861	      0.94461717	      0.31393143	     32.92601686	     -5.67645587	     -3.75964115	    -13.22060654	      8.51607373	     -9.26800013	      1.89712016	    -22.22872189	      6.37220886	      7.71113537	     -4.70459071	     15.02021530	     -5.69123224	     -0.38890458	      2.22538601	     -3.56112504	     -2.45270774
      0.60450000	     -1.42942154	      5.04464536	      6.92156215	     -0.71032922	      0.94358401	      0.31428800	     33.23818137	     -5.46814456	     -3.50387911	    -14.04088632	      7.99323458	    -10.07593340	      2.03486283	    -22.19088127	      6.18461972	      7.38753385	     -5.18866007	     15.04312206	     -5.27242422	     -0.30435087	      2.50089195	     -3.37401978	     -2.46933774
      0.60866667	     -1.51453833	      4.87820290	      6.90220055	     -0.70367049	      0.94269312	      0.31463001	     33.48437684	     -5.25068101	     -3.38496780	    -14.91935745	      7.47917515	    -10.59702496	      2.14812181	    -22.26525426	      5.97920231	      7.14263414	     -5.60401757	     14.92917592	     -5.03908487	     -0.20438064	      2.68285636	     -3.16484939	     -2.46866092
      0.61283333	     -1.59180008	      4.70715967	      6.87937045	     -0.69699350	      0.94186697	      0.31499756	     33.71749901	     -5.02239843	     -3.25875387	    -15.81288141	      7.02151086	    -11.16763538	      2.28207482	    -22.31077322	      5.77017203	      6.86759457	     -6.09062387	     14.80039858	     -4.81749443	     -0.03812167	      2.85056274	     -2.95124970	     -2.46355557
      0.61700000	     -1.68101994	      4.54505487	      6.84565650	     -0.69026136	      0.94108415	      0.31534854	     33.97020855	     -4.80953351	     -3.18981349	    -16.73021307	      6.48788293	    -11.47921326	      2.32871310	    -22.36612584	      5.58113230	      6.69452408	     -6.52488394	     14.54145830	     -4.72356696	      0.05019838	      3.04339058	     -2.74570260	     -2.46320338
      0.62116667	     -1.76126190	      4.36087572	      6.79386160	     -0.68353693	      0.94036112	      0.31577676	     34.19216637	     -4.54226319	     -3.01040158	    -17.61923090	      6.01262538	    -12.13542075	      2.43136560	    -22.35959703	      5.37149441	      6.38050417	     -7.09969385	     14.41194029	     -4.49329071	      0.30650678	      3.24165096	     -2.50147351	     -2.43175868
      0.62533333	     -1.82909288	      4.17784330	      6.73163161	     -0.67674953	      0.93971624	      0.31621473	     34.40660613	     -4.28401068	     -2.91745573	    -18.52822177	      5.49775518	    -12.49071701	      3.28764520	    -22.36130807	      5.16322668	      6.07603253	     -7.66445266	     14.12201654	     -4.29697646	      3.10790725	      3.41656772	     -2.27196693	     -2.41547724
      0.62950000	     -1.91682964	      3.99552614	      6.66345907	     -0.66995167	      0.93912302	      0.31665723	     34.63127360	     -4.01929822	     -2.79192803	    -19.42840349	      5.01039308	    -12.88201074	      3.27366908	    -22.33878697	      4.97174374	      5.88226998	     -8.23546416	     13.79866539	     -4.32192503	      3.15348530	      3.62645891	     -2.02898381	     -2.38318422
      0.63366667	     -1.98705268	      3.79990573	      6.58692843	     -0.66314186	      0.93862607	      0.31714753	     34.82629933	     -3.73082847	     -2.66305644	    -20.31765423	      4.56698649	    -13.27505896	      3.24918327	    -22.29053199	      4.76310973	      5.62775981	     -8.87973643	     13.45879824	     -4.24625624	      3.25220421	      3.80472159	     -1.78343501	     -2.34414342
      0.63783333	     -2.03738053	      3.59751492	      6.50505270	     -0.65631390	      0.93823254	      0.31765568	     34.98555975	     -3.42973611	     -2.54022297	    -21.19059188	      4.16874494	    -13.64402505	      3.21177004	    -22.23427503	      4.54600814	      5.34976854	     -9.56738185	     13.07021069	     -4.16655113	      3.41565467	      3.97225564	     -1.52073600	     -2.29757180
      0.64200000	     -2.07825331	      3.39292958	      6.41530143	     -0.64948114	      0.93792103	      0.31819722	     35.12726470	     -3.12058073	     -2.42278498	    -22.05671942	      3.82111788	    -13.96561241	      3.16076047	    -22.14943383	      4.32818834	      5.06467281	    -10.32137843	     12.63805732	     -4.11142584	      3.64326838	      4.12549271	     -1.25643155	     -2.24932993
      0.64616667	     -2.10716186	      3.17957914	      6.31693887	     -0.64264295	      0.93770290	      0.31876325	     35.24223746	     -2.79544825	     -2.30400740	    -22.90367979	      3.52151586	    -14.26575920	      3.09148597	    -22.05121376	      4.10332162	      4.78286996	    -11.11363334	     12.14750456	     -4.08785608	      3.95202734	      4.26346082	     -0.97914725	     -2.19943034
      0.65033333	     -2.07060343	      2.93198377	      6.23425225	     -0.63577003	      0.93766897	      0.31933566	     35.25536061	     -2.44626906	     -2.26550891	    -23.70197129	      3.24487842	    -14.44593871	      2.25518009	    -21.98562737	      3.82030019	      4.45576079	    -11.94390427	     11.54848417	     -4.03059203	      7.88546682	      4.32564691	     -0.65894968	     -2.19186497
      0.65450000	     -2.06219708	      2.74303710	      6.13229333	     -0.62893409	      0.93764661	      0.31991183	     35.31808609	     -2.14971044	     -2.19497511	    -24.55467603	      3.15974733	    -14.55053713	      2.24710130	    -21.88124812	      3.62357684	      4.24459483	    -12.79701993	     10.89109061	     -4.16648557	      7.90422133	      4.42660490	     -0.40337945	     -2.16525550
      0.65866667	     -2.07925868	      2.52721535	      6.01970415	     -0.62214715	      0.93767063	      0.32058403	     35.37284332	     -1.79647972	     -2.03893936	    -25.32831700	      3.00765902	    -14.86159088	      2.20501360	    -21.67461603	      3.39703029	      3.95568914	    -13.77760313	     10.28075149	     -4.21167563	      8.05227661	      4.54039826	     -0.14212615	     -2.06391364
      0.66283333	     -2.03366294	      2.28428442	      5.93254124	     -0.61534978	      0.93787292	      0.32124833	     35.32748769	     -1.43139198	     -1.96421243	    -26.05345439	      2.90192282	    -15.16306434	      2.07523934	    -21.49568815	      3.11581071	      3.64579871	    -14.80615961	      9.59738409	     -4.15382910	      8.57801996	      4.58441954	      0.16090448	     -1.99244946
      0.66700000	     -1.97776173	      2.07468494	      5.82289049	     -0.60856643	      0.93813471	      0.32189188	     35.27802253	     -1.10418818	     -1.92691415	    -26.79837180	      2.89415056	    -15.14969167	      2.05690996	    -21.32171561	      2.89192760	      3.42164148	    -15.83673636	      8.80542813	     -4.33999696	      8.65560500	      4.61569604	      0.43852075	     -1.99829223
      0.67116667	     -1.86275791	      1.78467936	      5.69987413	     -0.60180944	      0.93856413	      0.32267145	     35.09327012	     -0.64833773	     -1.80316850	    -27.38647299	      2.80002518	    -15.46824689	      1.38291223	    -21.12919141	      2.55180548	      2.99793908	    -16.98955827	      8.02228514	     -4.30567667	     11.53468062	      4.57773794	      0.80961805	     -1.93688226
      0.67533333	     -1.88033134	      1.64643201	      5.61899007	     -0.59518412	      0.93884633	      0.32329883	     35.10954623	     -0.41219223	     -1.77468785	    -28.12700322	      2.95878452	    -15.42421830	      1.34035718	    -20.77473299	      2.40728946	      2.88846852	    -18.18529709	      7.14033858	     -4.59148878	     11.71797713	      4.68100306	      0.97431433	     -1.91087130
      0.67950000	     -1.79694211	      1.43084049	      5.53129198	     -0.58854511	      0.93935846	      0.32399088	     34.94537490	     -0.07451065	     -1.74471524	    -28.71453984	      3.04897311	    -15.42940227	      1.32494056	    -20.48489190	      2.15540305	      2.66304201	    -19.42625371	      6.20125256	     -4.75430696	     11.78931459	      4.66187300	      1.24491472	     -1.90055412
      0.68366667	     -1.67445948	      1.15624871	      5.42643373	     -0.58195318	      0.93998235	      0.32480065	     34.68374640	      0.36458064	     -1.64492812	    -29.17675504	      3.04616855	    -15.71885221	      0.82453724	    -20.16596872	      1.81548719	      2.28500620	    -20.77090947	      5.29343391	     -4.78106049	     13.94729355	      4.60028960	      1.58712862	     -1.85425705
